<svg version="1.1" id="Layer_1" xmlns="http://www.w3.org/2000/svg" xmlns:xlink="http://www.w3.org/1999/xlink" x="0px" y="0px"
	 width="100%" viewBox="0 0 496 496" enable-background="new 0 0 496 496" xml:space="preserve">
<path fill="#000000" opacity="1.000000" stroke="none" 
	d="
M275.892029,283.120239 
	C256.584625,281.792114 245.331528,272.809082 241.359146,255.921021 
	C236.257294,234.231125 251.671707,213.807083 273.985016,212.691895 
	C294.055725,211.688782 308.039886,221.042496 312.064972,238.162720 
	C316.951874,258.948883 303.078217,279.157837 281.755371,282.311798 
	C279.948273,282.579071 278.140289,282.840515 275.892029,283.120239 
M301.780823,265.194946 
	C306.621857,253.026550 306.405518,241.040619 299.612366,229.713104 
	C292.695740,218.179703 281.755493,214.677124 269.059387,216.397095 
	C258.970123,217.763901 252.571777,224.020920 249.854004,233.724670 
	C246.460983,245.839401 248.601425,257.213684 255.801315,267.437500 
	C268.066467,284.853943 292.906799,282.953827 301.780823,265.194946 
z"/>
<path fill="#000000" opacity="1.000000" stroke="none" 
	d="
M199.084930,142.225784 
	C197.607193,142.016571 196.270355,142.328522 195.723724,140.215179 
	C204.041962,140.215179 212.194122,140.215179 220.512405,140.215179 
	C220.245590,140.934418 220.162125,141.461365 220.029297,141.474106 
	C213.924530,142.059921 213.058136,145.846359 213.135391,151.217651 
	C213.410843,170.368362 213.205597,189.525558 213.290176,208.679825 
	C213.305801,212.217270 212.841934,215.673645 212.093109,219.067642 
	C209.766098,229.614471 201.552643,235.036118 190.906555,233.296494 
	C188.771271,232.947586 187.097000,232.064209 186.503403,229.838821 
	C186.126221,228.424698 186.479431,227.054688 187.748901,226.334518 
	C189.859116,225.137314 191.834045,225.639999 193.728912,227.133987 
	C199.455185,231.648697 202.609879,230.589142 204.774628,223.393936 
	C205.294601,221.665634 205.656021,219.815140 205.664688,218.018784 
	C205.775574,195.034378 205.767853,172.049362 205.897324,149.065109 
	C205.922760,144.548950 204.211411,142.085037 199.084930,142.225784 
z"/>
<path fill="#000000" opacity="1.000000" stroke="none" 
	d="
M271.724274,170.688553 
	C246.739319,202.342773 221.972458,233.714310 196.790817,265.611237 
	C194.405334,261.892334 196.559601,260.630615 197.635345,259.263000 
	C226.687836,222.328766 255.764755,185.413681 284.914062,148.555893 
	C287.365021,145.456818 289.088501,141.498795 293.789673,140.421509 
	C287.681305,151.290314 279.299683,160.485352 271.724274,170.688553 
z"/>
<path fill="#000000" opacity="1.000000" stroke="none" 
	d="
M182.429245,319.114319 
	C179.535980,319.326935 177.042587,319.708374 174.723099,318.307434 
	C170.661026,315.853943 169.484512,310.578186 172.157425,306.547791 
	C174.866394,302.462982 181.021851,301.447510 184.991150,304.430603 
	C188.731415,307.241547 189.477432,312.907562 186.408890,316.387634 
	C185.453354,317.471313 184.042435,318.153442 182.429245,319.114319 
M174.593582,310.762604 
	C175.108795,314.987274 177.621429,316.437714 181.497208,315.320648 
	C183.305405,314.799500 184.537460,313.138031 184.458878,311.171570 
	C184.363831,308.792694 182.801682,307.164246 180.571350,306.623627 
	C177.680740,305.922974 175.945374,307.626678 174.593582,310.762604 
z"/>
<path fill="#000000" opacity="1.000000" stroke="none" 
	d="
M322.665771,306.667847 
	C322.827850,305.001495 322.563904,303.299683 324.415039,303.222717 
	C326.319122,303.143585 326.236176,304.849670 326.263580,306.125580 
	C326.334900,309.445648 326.320709,312.768646 326.274048,316.089569 
	C326.258026,317.230621 326.268677,318.529541 324.880157,318.992767 
	C323.380096,319.493286 322.372559,318.666809 321.500458,317.542633 
	C319.806366,315.358887 318.079102,313.200836 316.242554,310.876434 
	C314.289124,313.523804 316.643188,316.895660 314.164490,318.874786 
	C312.381500,319.146790 311.860077,318.098999 311.826263,316.858917 
	C311.726776,313.208374 311.727264,309.554291 311.744507,305.901855 
	C311.750061,304.725342 311.914307,303.487976 313.300171,303.093079 
	C314.572113,302.730652 315.556610,303.362549 316.332123,304.325165 
	C318.084106,306.499908 319.817657,308.689575 321.577454,310.896698 
	C323.221832,309.714874 322.393585,308.260193 322.665771,306.667847 
z"/>
<path fill="#000000" opacity="1.000000" stroke="none" 
	d="
M227.909088,313.339783 
	C225.870117,315.415131 227.601318,315.435852 228.878845,315.706024 
	C230.658478,316.082336 233.020935,314.937775 233.952530,317.605408 
	C231.252914,319.580353 224.009705,320.066040 222.525940,318.402496 
	C221.436005,317.180511 221.427307,305.016296 222.515457,303.752899 
	C224.057098,301.962952 231.051804,302.364288 233.978119,304.461090 
	C232.644318,308.194000 228.103989,304.606659 226.457809,307.760101 
	C227.297897,311.375397 231.555374,308.211456 232.976517,311.161377 
	C232.372635,313.761841 229.995132,312.891968 227.909088,313.339783 
z"/>
<path fill="#000000" opacity="1.000000" stroke="none" 
	d="
M203.260941,302.790436 
	C204.181641,302.732513 204.689209,302.661743 205.177063,302.730560 
	C207.111359,303.003662 210.002853,302.992920 209.829254,305.356537 
	C209.585373,308.676727 206.741028,306.293030 205.059769,306.578735 
	C204.617264,306.653931 204.213379,306.956329 203.736557,307.180328 
	C204.087387,309.426941 206.133606,309.276978 207.454956,310.010803 
	C209.663986,311.237610 211.310379,312.790131 210.652435,315.538330 
	C210.024307,318.161926 208.119415,319.341797 205.481949,319.299622 
	C203.995132,319.275848 202.456848,319.319275 201.040131,318.952484 
	C199.630356,318.587494 197.821274,317.854340 198.172852,316.060425 
	C198.608017,313.839935 200.351089,314.718475 201.774933,315.192078 
	C203.179199,315.659149 204.627258,316.222839 206.061890,314.511780 
	C204.072968,311.526581 197.715439,312.395142 198.772705,306.698883 
	C199.202759,304.381958 200.817795,303.424835 203.260941,302.790436 
z"/>
<path fill="#000000" opacity="1.000000" stroke="none" 
	d="
M345.846069,319.351471 
	C338.684570,319.271729 338.684296,319.271729 338.664978,312.439423 
	C338.662628,311.610291 338.662872,310.781189 338.665314,309.952057 
	C338.685822,303.002777 341.727203,300.812347 348.558563,302.771362 
	C349.601501,303.070465 350.484192,303.438080 350.402924,304.672455 
	C350.318604,305.953278 349.274475,306.070526 348.270264,306.277557 
	C346.353790,306.672729 343.915039,305.381134 342.503632,307.860291 
	C343.972412,311.220520 347.725952,308.316162 349.532288,310.827881 
	C348.974182,314.862823 344.495331,311.852173 342.824615,314.394409 
	C344.591949,317.473267 349.545959,313.815033 350.866577,317.775024 
	C349.680573,319.854980 347.847229,319.133850 345.846069,319.351471 
z"/>
<path fill="#000000" opacity="1.000000" stroke="none" 
	d="
M252.806244,314.948181 
	C251.062714,315.202515 249.777664,315.499268 249.364151,317.074341 
	C249.042282,318.300323 248.507736,319.337097 247.004654,318.894104 
	C245.552628,318.466156 245.734634,317.101440 245.703186,315.992828 
	C245.632828,313.512238 245.528824,311.018982 245.700989,308.549164 
	C245.856644,306.316101 244.590164,303.094971 248.520950,302.823120 
	C252.466095,302.550323 256.738770,301.956879 258.722351,306.754181 
	C260.183990,310.289154 258.089874,313.251373 252.806244,314.948181 
M253.643784,306.877472 
	C251.494186,306.047089 249.730072,306.130432 249.449768,308.944672 
	C249.296371,310.484833 250.113617,311.576813 251.733047,311.290924 
	C253.854034,310.916504 255.552505,310.000519 253.643784,306.877472 
z"/>
<path fill="#000000" opacity="1.000000" stroke="none" 
	d="
M283.692261,318.286804 
	C281.294891,319.551727 280.754517,318.256287 280.687958,316.537018 
	C280.598785,314.232300 279.404724,313.361542 277.190125,313.321045 
	C274.821167,313.277710 273.347534,314.030060 273.269012,316.638123 
	C273.231781,317.874695 272.821533,319.085968 271.302063,318.944580 
	C269.775299,318.802460 269.656799,317.413574 269.715454,316.277069 
	C269.943115,311.866241 268.791748,307.269684 270.666046,302.936005 
	C274.979919,303.813690 271.386963,309.975525 276.851227,309.801086 
	C282.022491,309.635986 279.764893,305.048920 282.258362,302.302948 
	C285.807983,307.632935 283.938629,312.914246 283.692261,318.286804 
z"/>
<path fill="#000000" opacity="1.000000" stroke="none" 
	d="
M156.378815,307.727722 
	C156.121201,307.251953 155.999069,307.139069 155.894714,307.011658 
	C154.715744,305.572083 151.086884,307.316345 151.548645,304.243683 
	C151.899536,301.908752 154.521225,302.875458 156.207657,302.740387 
	C158.717163,302.539337 160.385498,303.397491 160.292862,306.313965 
	C160.203766,309.118164 160.493942,311.958496 160.150635,314.724976 
	C159.635712,318.874451 154.744110,320.908325 151.486237,318.537018 
	C150.799957,318.037476 150.099625,317.444061 150.319412,316.552948 
	C150.454773,316.004028 151.160065,315.101440 151.454391,315.158447 
	C158.373123,316.498047 156.349731,311.510040 156.378815,307.727722 
z"/>
<path fill="#000000" opacity="1.000000" stroke="none" 
	d="
M229.209137,346.546082 
	C228.152893,349.950714 226.162094,351.617035 222.932526,351.559540 
	C221.150314,351.527863 219.655457,350.824036 219.065292,349.053436 
	C218.160767,346.339569 218.735535,343.862335 220.702866,341.754547 
	C222.291046,340.052948 224.280701,339.266144 226.496460,340.015686 
	C229.455475,341.016632 229.519043,343.561890 229.209137,346.546082 
M225.931580,347.265472 
	C227.061172,345.014740 226.629333,343.242340 224.247375,341.709381 
	C222.201157,343.682434 220.891556,345.716187 222.456299,348.299591 
	C223.545273,350.097534 224.659515,348.761292 225.931580,347.265472 
z"/>
<path fill="#000000" opacity="1.000000" stroke="none" 
	d="
M296.002075,317.494690 
	C295.865601,313.235138 295.817993,309.414795 295.852936,305.595245 
	C295.864166,304.366669 296.306519,303.221832 297.757324,303.110840 
	C299.299561,302.992859 299.798157,304.207184 299.829132,305.384796 
	C299.929443,309.199066 300.114594,313.037994 299.790771,316.826721 
	C299.587463,319.205688 298.102448,320.052032 296.002075,317.494690 
z"/>
<path fill="#000000" opacity="1.000000" stroke="none" 
	d="
M276.192688,350.203735 
	C277.095673,347.952698 274.617188,344.632080 278.542786,343.859100 
	C282.823730,343.016174 283.913147,344.950470 282.391785,351.345490 
	C280.472778,349.884369 278.312622,351.020386 276.192688,350.203735 
z"/>
<path fill="#000000" opacity="1.000000" stroke="none" 
	d="
M247.578918,349.128540 
	C249.143631,351.552399 247.242493,351.501282 246.054276,351.541229 
	C244.574463,351.590973 243.667297,350.629517 243.349289,349.162781 
	C242.625900,345.826447 245.651581,343.624542 249.384369,344.772949 
	C250.212540,346.839508 247.339249,347.178802 247.578918,349.128540 
z"/>
<path fill="#000000" opacity="1.000000" stroke="none" 
	d="
M265.693481,351.078369 
	C264.045258,345.736877 265.603149,343.792267 271.550964,344.724915 
	C267.872406,346.035736 272.010620,352.095184 265.693481,351.078369 
z"/>
<path fill="#000000" opacity="1.000000" stroke="none" 
	d="
M234.910675,346.092468 
	C236.094864,343.615936 234.732346,340.687988 237.828827,338.546906 
	C239.186539,343.246246 237.272354,347.151611 237.139084,351.526459 
	C233.666885,350.461182 234.945847,348.216064 234.910675,346.092468 
z"/>
<path fill="#000000" opacity="1.000000" stroke="none" 
	d="
M255.829132,351.334595 
	C253.534286,349.410461 255.125977,347.306366 255.276093,345.377655 
	C255.362061,344.273193 256.811859,343.688477 258.084564,343.934509 
	C259.501678,344.208496 259.847168,345.129608 259.531647,346.520264 
	C259.052948,348.629852 259.809540,351.519562 255.829132,351.334595 
z"/>
</svg>